<svg width="31" height="31" viewBox="0 0 31 31" fill="none" xmlns="http://www.w3.org/2000/svg">
<path d="M15.2286 29.0568C15.7536 29.0447 16.2573 28.8474 16.6508 28.4997C17.0443 28.152 17.3021 27.6763 17.3786 27.1568H12.9953C13.074 27.6904 13.3439 28.1773 13.7547 28.5268C14.1655 28.8763 14.6893 29.0646 15.2286 29.0568Z" fill="black" fill-opacity="0.35"/>
<path d="M27.6037 23.9318L27.3203 23.6818C26.5165 22.9657 25.813 22.1444 25.2287 21.2402C24.5905 19.9923 24.208 18.6295 24.1037 17.2318V13.1152C24.1003 12.6151 24.0557 12.1162 23.9703 11.6235C22.5588 11.3334 21.2908 10.5644 20.3812 9.44665C19.4715 8.32896 18.9761 6.93125 18.9787 5.49017V4.96517C18.1086 4.53699 17.1738 4.25543 16.212 4.13184V3.08184C16.212 2.78678 16.0948 2.50382 15.8861 2.29518C15.6775 2.08655 15.3945 1.96934 15.0995 1.96934C14.8044 1.96934 14.5215 2.08655 14.3128 2.29518C14.1042 2.50382 13.987 2.78678 13.987 3.08184V4.1735C11.8334 4.4773 9.86247 5.54996 8.43801 7.19345C7.01355 8.83694 6.23176 10.9403 6.23699 13.1152V17.2318C6.13262 18.6295 5.75014 19.9923 5.11199 21.2402C4.53773 22.1421 3.84549 22.9633 3.05366 23.6818L2.77032 23.9318V26.2818H27.6037V23.9318Z" fill="black" fill-opacity="0.5"/>
<path d="M25.2286 9.65684C27.5298 9.65684 29.3953 7.79136 29.3953 5.49018C29.3953 3.18899 27.5298 1.32351 25.2286 1.32351C22.9274 1.32351 21.062 3.18899 21.062 5.49018C21.062 7.79136 22.9274 9.65684 25.2286 9.65684Z" fill="black" fill-opacity="0.35"/>
</svg>
