<svg width="27" height="24" viewBox="0 0 27 24" fill="none" xmlns="http://www.w3.org/2000/svg">
<path d="M13.344 21C12.0102 19.9226 10.7739 18.7415 9.648 17.469C7.9584 15.558 5.952 12.712 5.952 9.99997C5.95126 8.61493 6.38444 7.26082 7.1967 6.109C8.00896 4.95718 9.16379 4.05943 10.515 3.52937C11.8663 2.99931 13.3532 2.86076 14.7877 3.13126C16.2221 3.40176 17.5396 4.06915 18.5733 5.04897C19.2616 5.69783 19.8071 6.46951 20.1783 7.31934C20.5495 8.16918 20.7391 9.0803 20.736 9.99997C20.736 12.712 18.7296 15.558 17.04 17.469C15.9141 18.7415 14.6778 19.9226 13.344 21ZM13.344 6.99997C12.5038 6.99997 11.698 7.31604 11.1039 7.87865C10.5098 8.44126 10.176 9.20432 10.176 9.99997C10.176 10.7956 10.5098 11.5587 11.1039 12.1213C11.698 12.6839 12.5038 13 13.344 13C14.1842 13 14.99 12.6839 15.5841 12.1213C16.1782 11.5587 16.512 10.7956 16.512 9.99997C16.512 9.20432 16.1782 8.44126 15.5841 7.87865C14.99 7.31604 14.1842 6.99997 13.344 6.99997Z" fill="#FFCD1D"/>
</svg>
