<svg width="22" height="22" viewBox="0 0 22 22" fill="none" xmlns="http://www.w3.org/2000/svg">
<path d="M15.8786 15.1987C15.8786 14.7321 15.8544 14.2943 15.8059 13.885C15.7574 13.4758 15.6649 13.0645 15.5282 12.6512C15.3916 12.2379 15.2175 11.886 15.006 11.5954C14.7945 11.3049 14.5124 11.0675 14.1599 10.8834C13.8073 10.6992 13.4062 10.6071 12.9567 10.6071C12.9038 10.6399 12.7562 10.7238 12.5138 10.8588C12.2714 10.9939 12.0841 11.0941 11.9519 11.1596C11.8197 11.2251 11.6412 11.3069 11.4165 11.4051C11.1917 11.5033 10.9758 11.5729 10.7686 11.6138C10.5615 11.6548 10.3566 11.6752 10.1538 11.6752C9.95112 11.6752 9.74619 11.6548 9.53906 11.6138C9.33193 11.5729 9.11599 11.5033 8.89123 11.4051C8.66647 11.3069 8.48798 11.2251 8.35577 11.1596C8.22356 11.0941 8.03626 10.9939 7.79387 10.8588C7.55148 10.7238 7.40385 10.6399 7.35096 10.6071C6.90144 10.6071 6.5004 10.6992 6.14784 10.8834C5.79527 11.0675 5.51322 11.3049 5.30168 11.5954C5.09014 11.886 4.91607 12.2379 4.77945 12.6512C4.64283 13.0645 4.55028 13.4758 4.5018 13.885C4.45333 14.2943 4.42909 14.7321 4.42909 15.1987C4.42909 15.7961 4.61418 16.2933 4.98438 16.6903C5.35457 17.0872 5.80849 17.2857 6.34615 17.2857H13.9615C14.4992 17.2857 14.9531 17.0872 15.3233 16.6903C15.6935 16.2933 15.8786 15.7961 15.8786 15.1987ZM13.5913 7.90625C13.5913 7.02232 13.2542 6.26935 12.5799 5.64732C11.9056 5.0253 11.097 4.71429 10.1538 4.71429C9.21074 4.71429 8.40204 5.0253 7.72776 5.64732C7.05349 6.26935 6.71635 7.02232 6.71635 7.90625C6.71635 8.78199 7.05349 9.53088 7.72776 10.1529C8.40204 10.7749 9.21074 11.0859 10.1538 11.0859C11.097 11.0859 11.9056 10.7749 12.5799 10.1529C13.2542 9.53088 13.5913 8.78199 13.5913 7.90625ZM22 14.5357V16.8929C22 17.0074 21.9603 17.1016 21.881 17.1752C21.8017 17.2489 21.7003 17.2857 21.5769 17.2857H20.3077V20.0357C20.3077 20.5759 20.1006 21.0383 19.6863 21.423C19.272 21.8077 18.774 22 18.1923 22H2.11538C1.53365 22 1.03566 21.8077 0.621394 21.423C0.207131 21.0383 0 20.5759 0 20.0357V1.96429C0 1.42411 0.207131 0.961682 0.621394 0.577009C1.03566 0.192336 1.53365 0 2.11538 0H18.1923C18.774 0 19.272 0.192336 19.6863 0.577009C20.1006 0.961682 20.3077 1.42411 20.3077 1.96429V4.71429H21.5769C21.7003 4.71429 21.8017 4.75112 21.881 4.82478C21.9603 4.89844 22 4.99256 22 5.10714V7.46429C22 7.57887 21.9603 7.67299 21.881 7.74665C21.8017 7.82031 21.7003 7.85714 21.5769 7.85714H20.3077V9.42857H21.5769C21.7003 9.42857 21.8017 9.4654 21.881 9.53906C21.9603 9.61272 22 9.70685 22 9.82143V12.1786C22 12.2932 21.9603 12.3873 21.881 12.4609C21.8017 12.5346 21.7003 12.5714 21.5769 12.5714H20.3077V14.1429H21.5769C21.7003 14.1429 21.8017 14.1797 21.881 14.2533C21.9603 14.327 22 14.4211 22 14.5357Z" fill="#FF6F23" fill-opacity="0.85"/>
</svg>
