<svg width="22" height="22" viewBox="0 0 22 22" fill="none" xmlns="http://www.w3.org/2000/svg">
<path d="M14.3 19.8H15.4V22H0V19.8H1.1V2.2C1.1 0.99 2.09 0 3.3 0H12.1C12.6835 0 13.2431 0.231785 13.6556 0.644365C14.0682 1.05695 14.3 1.61652 14.3 2.2V19.8ZM3.3 2.2V8.8H12.1V2.2H3.3ZM14.3 11H15.4C15.9835 11 16.5431 11.2318 16.9556 11.6444C17.3682 12.0569 17.6 12.6165 17.6 13.2V16.5C17.6 16.7917 17.7159 17.0715 17.9222 17.2778C18.1285 17.4841 18.4083 17.6 18.7 17.6C18.9917 17.6 19.2715 17.4841 19.4778 17.2778C19.6841 17.0715 19.8 16.7917 19.8 16.5V11L17.6 8.8V6.6L15.4 4.4L16.5 3.3L22 8.8V16.5C22 17.3752 21.6523 18.2146 21.0335 18.8335C20.4146 19.4523 19.5752 19.8 18.7 19.8C17.8248 19.8 16.9854 19.4523 16.3665 18.8335C15.7477 18.2146 15.4 17.3752 15.4 16.5V13.2H14.3V11Z" fill="#FF6F23" fill-opacity="0.85"/>
</svg>
