<svg width="31" height="30" viewBox="0 0 31 30" fill="none" xmlns="http://www.w3.org/2000/svg">
<path d="M15.1144 25L25.7394 13.75V8.75L21.3644 6.875L15.1144 8.75L8.86438 6.875L4.48938 8.75V13.75L15.1144 25Z" fill="black" fill-opacity="0.5"/>
<path d="M15.1144 10C15.1144 10 15.1144 10 16.0616 8.75C17.1573 7.30419 18.7891 6.25 20.7394 6.25C23.846 6.25 26.3644 8.7684 26.3644 11.875C26.3644 13.0314 26.0155 14.1063 25.4171 15C24.4081 16.5075 15.1144 26.25 15.1144 26.25M15.1144 10C15.1144 10 15.1144 10 14.1671 8.75C13.0715 7.30419 11.4396 6.25 9.48938 6.25C6.38278 6.25 3.86438 8.7684 3.86438 11.875C3.86438 13.0314 4.2133 14.1063 4.81159 15C5.82068 16.5075 15.1144 26.25 15.1144 26.25" stroke="#F5F5F5" stroke-width="2" stroke-linecap="round"/>
</svg>
