<svg width="25" height="18" viewBox="0 0 25 18" fill="none" xmlns="http://www.w3.org/2000/svg">
<path d="M12.3753 17.82L11.9583 17.52C2.99261 11.22 0.560059 9 0.560059 5.4C0.560059 2.4 3.34012 0 6.81519 0C9.66475 0 11.2633 1.38 12.3753 2.46C13.4873 1.38 15.0859 0 17.9354 0C21.4105 0 24.1906 2.4 24.1906 5.4C24.1906 9 21.758 11.22 12.7923 17.52L12.3753 17.82ZM6.81519 1.2C4.10463 1.2 1.95009 3.06 1.95009 5.4C1.95009 8.46 4.17413 10.5 12.3753 16.26C20.5765 10.5 22.8005 8.46 22.8005 5.4C22.8005 3.06 20.646 1.2 17.9354 1.2C15.5029 1.2 14.1823 2.46 13.1398 3.48L12.3753 4.26L11.6108 3.48C10.5683 2.46 9.24774 1.2 6.81519 1.2Z" fill="black" fill-opacity="0.54"/>
</svg>
