<svg width="73" height="35" viewBox="0 0 73 35" fill="none" xmlns="http://www.w3.org/2000/svg">
<path d="M13.2712 34.8261V32.5095C13.2712 31.6214 12.3946 31.0424 10.8921 31.0424C10.141 31.0424 9.32719 31.1968 8.76372 31.6987C8.32572 31.274 7.6998 31.0424 6.76079 31.0424C6.13458 31.0424 5.50895 31.1581 5.00793 31.5828V31.1196H3.69336V34.8261H5.00793V32.7797C5.00793 32.1235 5.5714 31.8145 6.44797 31.8145C7.32397 31.8145 7.76254 32.162 7.76254 32.7797V34.8261H9.07711V32.7797C9.07711 32.1235 9.70274 31.8145 10.5166 31.8145C11.3931 31.8145 11.8311 32.162 11.8311 32.7797V34.8261H13.2712ZM32.7391 31.1196H30.611V29.9999H29.2964V31.1196H28.107V31.853H29.2961V33.552C29.2961 34.4015 29.8596 34.9033 31.3621 34.9033C31.9255 34.9033 32.5512 34.7875 32.9897 34.6331L32.6139 33.938C32.2384 34.0925 31.8004 34.1312 31.4873 34.1312C30.8613 34.1312 30.611 33.8995 30.611 33.5133V31.853H32.7391V31.1196ZM43.8819 31.0422C43.1308 31.0422 42.63 31.274 42.3169 31.5828V31.1196H41.0023V34.8261H42.3169V32.7412C42.3169 32.1235 42.7549 31.776 43.5688 31.776C43.8191 31.776 44.1322 31.8146 44.3826 31.8532L44.7581 31.0811C44.5078 31.0424 44.1322 31.0424 43.8819 31.0424V31.0422ZM27.0428 31.4284C26.4166 31.1581 25.5403 31.0424 24.6013 31.0424C23.0991 31.0424 22.0976 31.5056 22.0976 32.2392C22.0976 32.8571 22.8487 33.2044 24.1633 33.3203L24.7892 33.359C25.4779 33.4361 25.8534 33.552 25.8534 33.7451C25.8534 34.0153 25.3527 34.2084 24.4761 34.2084C23.5998 34.2084 22.9112 34.0152 22.4729 33.8223L21.847 34.44C22.5356 34.7488 23.4746 34.9033 24.4134 34.9033C26.1662 34.9033 27.168 34.4015 27.168 33.7064C27.168 33.05 26.3542 32.7025 25.102 32.5868L24.4761 32.5481C23.9126 32.5094 23.4746 32.4323 23.4746 32.2007C23.4746 31.9304 23.9126 31.776 24.6013 31.776C25.3527 31.776 26.1038 31.9689 26.4793 32.0848L27.0428 31.4284ZM61.973 31.0424C61.2216 31.0424 60.7209 31.274 60.4078 31.5828V31.1196H59.0932V34.8261H60.4078V32.7412C60.4078 32.1235 60.8461 31.776 61.6596 31.776C61.9103 31.776 62.2234 31.8146 62.4738 31.8532L62.8493 31.0811C62.5989 31.0424 62.2234 31.0424 61.973 31.0424ZM45.1964 32.9728C45.1964 34.0925 46.4483 34.9033 48.389 34.9033C49.2653 34.9033 49.8912 34.7875 50.5172 34.4787L49.8912 33.8223C49.3905 34.0539 48.8898 34.1697 48.3263 34.1697C47.2621 34.1697 46.511 33.7064 46.511 32.9728C46.511 32.2779 47.2621 31.8145 48.3263 31.776C48.8898 31.776 49.3905 31.8917 49.8912 32.1235L50.5172 31.4671C49.8912 31.1581 49.2653 31.0424 48.389 31.0424C46.4483 31.0424 45.1964 31.8532 45.1964 32.9728ZM57.3407 32.9728V31.1196H56.0261V31.5828C55.5878 31.2355 54.9619 31.0424 54.1481 31.0424C52.4579 31.0424 51.1434 31.8532 51.1434 32.9728C51.1434 34.0925 52.4579 34.9033 54.1481 34.9033C55.0243 34.9033 55.6505 34.7103 56.0261 34.3628V34.8261H57.3407V32.9728ZM52.5204 32.9728C52.5204 32.3164 53.209 31.776 54.3357 31.776C55.3999 31.776 56.1513 32.2779 56.1513 32.9728C56.1513 33.6292 55.3999 34.1697 54.3357 34.1697C53.209 34.131 52.5204 33.6292 52.5204 32.9728ZM36.8083 31.0424C35.0554 31.0424 33.8033 31.8145 33.8033 32.9728C33.8033 34.1312 35.0551 34.9033 36.8707 34.9033C37.747 34.9033 38.6236 34.7488 39.3122 34.4015L38.686 33.8223C38.1853 34.0539 37.5594 34.2084 36.9335 34.2084C36.1196 34.2084 35.3058 33.9767 35.1179 33.3202H39.5626V33.0115C39.6253 31.8145 38.4984 31.0424 36.808 31.0424H36.8083ZM36.8083 31.7373C37.6218 31.7373 38.1856 32.0463 38.3105 32.6254H35.1806C35.3058 32.1235 35.8693 31.7373 36.8083 31.7373ZM69.4222 32.9728V29.6524H68.1076V31.5828C67.6693 31.2355 67.0434 31.0424 66.2296 31.0424C64.5394 31.0424 63.2249 31.8532 63.2249 32.9728C63.2249 34.0925 64.5394 34.9033 66.2296 34.9033C67.1061 34.9033 67.732 34.7103 68.1076 34.3628V34.8261H69.4222V32.9728ZM64.6022 32.9728C64.6022 32.3164 65.2905 31.776 66.4175 31.776C67.4817 31.776 68.2328 32.2779 68.2328 32.9728C68.2328 33.6292 67.4817 34.1697 66.4175 34.1697C65.2905 34.131 64.6022 33.6292 64.6022 32.9728ZM20.6576 32.9728V31.1196H19.343V31.5828C18.9047 31.2355 18.2788 31.0424 17.465 31.0424C15.7749 31.0424 14.4603 31.8532 14.4603 32.9728C14.4603 34.0925 15.7749 34.9033 17.465 34.9033C18.3416 34.9033 18.9675 34.7103 19.343 34.3628V34.8261H20.6576V32.9728ZM15.7749 32.9728C15.7749 32.3164 16.4635 31.776 17.5902 31.776C18.6544 31.776 19.4058 32.2779 19.4058 32.9728C19.4058 33.6292 18.6544 34.1697 17.5902 34.1697C16.4635 34.131 15.7749 33.6292 15.7749 32.9728Z" fill="black"/>
<path d="M26.6045 2.97289H46.323V24.8261H26.6045V2.97289Z" fill="#FF5F00"/>
<path d="M27.8566 13.8996C27.8566 9.4595 31.2369 5.52121 36.4324 2.97289C32.6142 1.11965 27.7942 0 22.5359 0C10.0783 0 0 6.2161 0 13.8996C0 21.5829 10.0783 27.7991 22.5356 27.7991C27.7939 27.7991 32.6139 26.6795 36.4324 24.8261C31.2369 22.3165 27.8566 18.3396 27.8566 13.8996Z" fill="#EB001B"/>
<path d="M72.9275 13.8996C72.9275 21.5829 62.8493 27.7991 50.3919 27.7991C45.1336 27.7991 40.3136 26.6795 36.4951 24.8261C41.7534 22.2779 45.0712 18.3396 45.0712 13.8996C45.0712 9.4595 41.6907 5.52121 36.4951 2.97289C40.3134 1.11965 45.1336 0 50.3919 0C62.8493 0 72.9278 6.2548 72.9278 13.8996H72.9275Z" fill="#F79E1B"/>
</svg>
