<svg width="30" height="31" viewBox="0 0 30 31" fill="none" xmlns="http://www.w3.org/2000/svg">
<path d="M15 14.4951C16.0355 14.4951 16.875 13.6557 16.875 12.6201C16.875 11.5846 16.0355 10.7451 15 10.7451C13.9645 10.7451 13.125 11.5846 13.125 12.6201C13.125 13.6557 13.9645 14.4951 15 14.4951Z" fill="#FFD233"/>
<path d="M15 3.24512C12.3651 3.24499 9.83657 4.28482 7.96405 6.13861C6.09154 7.9924 5.02635 10.5103 5 13.1451C5 19.9951 13.8125 27.6201 14.1875 27.9451C14.4139 28.1388 14.7021 28.2452 15 28.2452C15.2979 28.2452 15.5861 28.1388 15.8125 27.9451C16.25 27.6201 25 19.9951 25 13.1451C24.9736 10.5103 23.9085 7.9924 22.0359 6.13861C20.1634 4.28482 17.6349 3.24499 15 3.24512ZM15 16.9951C14.1347 16.9951 13.2888 16.7385 12.5694 16.2578C11.8499 15.7771 11.2892 15.0938 10.958 14.2944C10.6269 13.4949 10.5403 12.6153 10.7091 11.7666C10.8779 10.9179 11.2946 10.1384 11.9064 9.52652C12.5183 8.91467 13.2978 8.49799 14.1465 8.32918C14.9951 8.16037 15.8748 8.24701 16.6742 8.57814C17.4737 8.90928 18.1569 9.47003 18.6377 10.1895C19.1184 10.909 19.375 11.7548 19.375 12.6201C19.375 13.7804 18.9141 14.8932 18.0936 15.7137C17.2731 16.5342 16.1603 16.9951 15 16.9951Z" fill="#FFD233"/>
</svg>
