<svg width="22" height="20" viewBox="0 0 22 20" fill="none" xmlns="http://www.w3.org/2000/svg">
<path d="M20.7073 1.73706C20.4042 1.28346 19.9789 0.924913 19.4806 0.702887C18.9823 0.480862 18.4313 0.404423 17.8913 0.482408L3.10916 2.50302C2.51372 2.58062 1.95704 2.84114 1.51598 3.24863C1.07492 3.65611 0.771233 4.19046 0.646831 4.77791C0.52243 5.36536 0.583453 5.97695 0.821477 6.52824C1.0595 7.07953 1.46279 7.54334 1.97567 7.85564L6.75323 10.7937C6.862 10.8607 6.95581 10.9494 7.0288 11.0542C7.10179 11.1591 7.1524 11.2778 7.17747 11.4031L8.16796 16.9332C8.26515 17.5153 8.53946 18.0533 8.95351 18.474C9.36757 18.8946 9.90123 19.1773 10.4818 19.2836L10.5506 19.2966C11.1432 19.3974 11.7525 19.3103 12.2931 19.0475C12.8337 18.7846 13.2785 18.3592 13.5651 17.8308L20.8438 4.78538C21.1077 4.31514 21.2348 3.78045 21.2107 3.24175C21.1866 2.70305 21.0122 2.18184 20.7073 1.73706ZM19.1429 3.82286L11.8133 16.8688C11.7254 17.0349 11.5867 17.1685 11.4175 17.25C11.2483 17.3316 11.0574 17.3568 10.8728 17.3221C10.6887 17.2904 10.5186 17.2035 10.3852 17.0728C10.2517 16.9422 10.1612 16.774 10.1256 16.5907L9.1351 11.0606C9.06345 10.6588 8.90809 10.2766 8.67912 9.93883C8.45016 9.60101 8.15269 9.31514 7.80605 9.09976L3.01866 6.1598C2.85668 6.06315 2.72916 5.91804 2.65412 5.74499C2.57907 5.57194 2.5603 5.37968 2.60044 5.19538C2.63547 5.01082 2.72864 4.84231 2.86632 4.71451C3.004 4.58671 3.17897 4.50632 3.36562 4.4851L18.1773 2.47006C18.3496 2.43508 18.5283 2.45076 18.6919 2.51521C18.8554 2.57965 18.9968 2.69009 19.099 2.83318C19.2011 2.97627 19.2596 3.14589 19.2674 3.32152C19.2752 3.49715 19.232 3.67128 19.1429 3.82286Z" fill="black" fill-opacity="0.7"/>
</svg>
