<svg width="16" height="16" viewBox="0 0 16 16" fill="none" xmlns="http://www.w3.org/2000/svg">
<path d="M7.23432 2.75462C7.30494 2.6114 7.41416 2.49082 7.54964 2.40651C7.68512 2.3222 7.84146 2.27752 8.00097 2.27752C8.16049 2.27752 8.31682 2.3222 8.4523 2.40651C8.58778 2.49082 8.697 2.6114 8.76762 2.75462L10.2126 5.68628L13.4435 6.15713C13.6015 6.17994 13.7499 6.24656 13.872 6.34944C13.9941 6.45233 14.085 6.58738 14.1344 6.73931C14.1839 6.89124 14.1898 7.05399 14.1517 7.20915C14.1135 7.3643 14.0328 7.50567 13.9185 7.61725L11.5796 9.89923L12.1316 13.121C12.1586 13.2785 12.1411 13.4404 12.081 13.5884C12.0209 13.7365 11.9206 13.8647 11.7915 13.9586C11.6624 14.0526 11.5097 14.1084 11.3505 14.1199C11.1913 14.1314 11.0321 14.0981 10.8909 14.0237L8.00097 12.5018L5.11107 14.0237C4.96984 14.0981 4.81063 14.1314 4.65146 14.1199C4.49229 14.1084 4.33951 14.0526 4.21041 13.9586C4.08131 13.8647 3.98104 13.7365 3.92094 13.5884C3.86085 13.4404 3.84333 13.2785 3.87037 13.121L4.42137 9.89923L2.08437 7.6163C1.97044 7.50474 1.88991 7.36352 1.85187 7.20858C1.81383 7.05363 1.81979 6.89112 1.86908 6.73939C1.91838 6.58766 2.00904 6.45274 2.13085 6.34985C2.25265 6.24697 2.40074 6.18022 2.55842 6.15713L5.78842 5.68628L7.23432 2.75462Z" fill="#FFD233"/>
</svg>
