<svg width="22" height="22" viewBox="0 0 22 22" fill="none" xmlns="http://www.w3.org/2000/svg">
<path d="M1.83333 22C1.83333 22 0 22 0 20.1667C0 18.3333 1.83333 12.8333 11 12.8333C20.1667 12.8333 22 18.3333 22 20.1667C22 22 20.1667 22 20.1667 22H1.83333ZM11 11C12.4587 11 13.8576 10.4205 14.8891 9.38909C15.9205 8.35764 16.5 6.95869 16.5 5.5C16.5 4.04131 15.9205 2.64236 14.8891 1.61091C13.8576 0.579463 12.4587 0 11 0C9.54131 0 8.14236 0.579463 7.11091 1.61091C6.07946 2.64236 5.5 4.04131 5.5 5.5C5.5 6.95869 6.07946 8.35764 7.11091 9.38909C8.14236 10.4205 9.54131 11 11 11Z" fill="#FF6F23"/>
</svg>
