<svg width="31" height="31" viewBox="0 0 31 31" fill="none" xmlns="http://www.w3.org/2000/svg">
<path d="M2.52734 30.4902C2.52734 30.4902 0.0273438 30.4902 0.0273438 27.9902C0.0273438 25.4902 2.52734 17.9902 15.0273 17.9902C27.5273 17.9902 30.0273 25.4902 30.0273 27.9902C30.0273 30.4902 27.5273 30.4902 27.5273 30.4902H2.52734ZM15.0273 15.4902C17.0165 15.4902 18.9241 14.7 20.3306 13.2935C21.7372 11.887 22.5273 9.9793 22.5273 7.99017C22.5273 6.00105 21.7372 4.0934 20.3306 2.68687C18.9241 1.28035 17.0165 0.490173 15.0273 0.490173C13.0382 0.490173 11.1306 1.28035 9.72404 2.68687C8.31752 4.0934 7.52734 6.00105 7.52734 7.99017C7.52734 9.9793 8.31752 11.887 9.72404 13.2935C11.1306 14.7 13.0382 15.4902 15.0273 15.4902Z" fill="black" fill-opacity="0.5"/>
</svg>
