<svg width="57" height="35" viewBox="0 0 57 35" fill="none" xmlns="http://www.w3.org/2000/svg">
<g clip-path="url(#clip0_15_76)">
<path d="M17.5273 35.4902C17.5273 35.4902 15.0273 35.4902 15.0273 32.9902C15.0273 30.4902 17.5273 22.9902 30.0273 22.9902C42.5273 22.9902 45.0273 30.4902 45.0273 32.9902C45.0273 35.4902 42.5273 35.4902 42.5273 35.4902H17.5273ZM30.0273 20.4902C32.0165 20.4902 33.9241 19.7 35.3306 18.2935C36.7372 16.887 37.5273 14.9793 37.5273 12.9902C37.5273 11.001 36.7372 9.0934 35.3306 7.68687C33.9241 6.28035 32.0165 5.49017 30.0273 5.49017C28.0382 5.49017 26.1306 6.28035 24.724 7.68687C23.3175 9.0934 22.5273 11.001 22.5273 12.9902C22.5273 14.9793 23.3175 16.887 24.724 18.2935C26.1306 19.7 28.0382 20.4902 30.0273 20.4902Z" fill="black" fill-opacity="0.5"/>
</g>
<defs>
<clipPath id="clip0_15_76">
<rect width="57" height="35" fill="white"/>
</clipPath>
</defs>
</svg>
